<?xml version="1.0" encoding="UTF-8"?>
<svg width="75px" height="75px" viewBox="0 0 75 75" version="1.1" xmlns="http://www.w3.org/2000/svg" xmlns:xlink="http://www.w3.org/1999/xlink">
    <!-- Generator: Sketch 54.1 (76490) - https://sketchapp.com -->
    <title>operational assesment</title>
    <desc>Created with Sketch.</desc>
    <g id="mockups" stroke="none" stroke-width="1" fill="none" fill-rule="evenodd">
        <g id="home-panel-2" transform="translate(-738.000000, -231.000000)">
            <g id="services" transform="translate(737.000000, 231.000000)">
                <g id="operational-assesment" transform="translate(1.000000, 0.000000)">
                    <circle id="Oval" fill="#EEEEEE" cx="37.5" cy="37.5" r="37.5"></circle>
                    <g id="noun_Check_1776256" transform="translate(15.000000, 20.000000)" fill="#4A4A4A" fill-rule="nonzero">
                        <g id="Group">
                            <path d="M10.0350279,0.0797102703 C9.88790629,0.100558127 9.75225135,0.169599775 9.65002786,0.275656216 C7.44726488,2.44522162 5.79859566,4.23554595 3.69627786,6.32970811 L1.30377786,4.34322162 C1.12336426,4.19256535 0.874751308,4.14822555 0.651979116,4.22697414 C0.429206924,4.30572274 0.266288163,4.49553646 0.224848331,4.72461655 C0.183408499,4.95369664 0.269774594,5.18706733 0.45127786,5.33645405 L3.31127786,7.71483243 C3.5744921,7.93208503 3.96329428,7.91444894 4.20502786,7.67429189 C6.56533108,5.34962162 8.25200266,3.48568649 10.5850279,1.18781838 C10.7897819,0.992491228 10.8436421,0.689969727 10.7185385,0.437918154 C10.5934348,0.185866581 10.3176959,0.041359908 10.0350279,0.0797102703 L10.0350279,0.0797102703 Z" id="Path"></path>
                        </g>
                    </g>
                    <rect id="Rectangle" fill="#4A4A4A" x="29" y="24" width="30" height="1.5" rx="0.75"></rect>
                    <g id="noun_Check_1776256" transform="translate(16.000000, 47.000000)" fill="#4A4A4A" fill-rule="nonzero">
                        <g id="Group">
                            <path d="M10.0350279,0.0797102703 C9.88790629,0.100558127 9.75225135,0.169599775 9.65002786,0.275656216 C7.44726488,2.44522162 5.79859566,4.23554595 3.69627786,6.32970811 L1.30377786,4.34322162 C1.12336426,4.19256535 0.874751308,4.14822555 0.651979116,4.22697414 C0.429206924,4.30572274 0.266288163,4.49553646 0.224848331,4.72461655 C0.183408499,4.95369664 0.269774594,5.18706733 0.45127786,5.33645405 L3.31127786,7.71483243 C3.5744921,7.93208503 3.96329428,7.91444894 4.20502786,7.67429189 C6.56533108,5.34962162 8.25200266,3.48568649 10.5850279,1.18781838 C10.7897819,0.992491228 10.8436421,0.689969727 10.7185385,0.437918154 C10.5934348,0.185866581 10.3176959,0.041359908 10.0350279,0.0797102703 L10.0350279,0.0797102703 Z" id="Path"></path>
                        </g>
                    </g>
                    <rect id="Rectangle" fill="#4A4A4A" x="29" y="51" width="30" height="1.5" rx="0.75"></rect>
                    <rect id="Rectangle" fill="#4A4A4A" x="29" y="37" width="30" height="1.5" rx="0.75"></rect>
                    <g id="noun_Cross_1776298" transform="translate(17.000000, 35.000000)" fill="#4A4A4A" fill-rule="nonzero">
                        <g id="Group">
                            <path d="M6.71733965,0.211773729 C6.48952815,-0.0199025424 6.12018598,-0.019890678 5.89238148,0.211773729 L3.49999615,2.64471271 L1.10761665,0.211785593 C0.879813317,-0.0198788136 0.510472317,-0.019890678 0.28265965,0.211785593 C0.05484815,0.443461864 0.05485515,0.819065254 0.28265965,1.05072966 L2.67503798,3.48365085 L0.282667817,5.9165661 C0.0548644833,6.14823051 0.0548563167,6.5238339 0.282667817,6.75551017 C0.510480483,6.98718644 0.87982265,6.98717458 1.10762598,6.75551017 L3.49999615,4.32258305 L5.89237448,6.75552203 C6.12017665,6.98718644 6.48951998,6.98718644 6.71733148,6.75552203 C6.94514345,6.52384576 6.94513645,6.14824237 6.71733265,5.91657797 L4.32495432,3.48365085 L6.71733965,1.0507178 C6.94514462,0.81905339 6.94515278,0.44345 6.71733965,0.211773729 L6.71733965,0.211773729 Z" id="Path"></path>
                        </g>
                    </g>
                </g>
            </g>
        </g>
    </g>
</svg>