<?xml version="1.0" encoding="utf-8"?>
<!-- Generator: Adobe Illustrator 19.1.0, SVG Export Plug-In . SVG Version: 6.00 Build 0)  -->
<svg version="1.1" id="Layer_1" xmlns="http://www.w3.org/2000/svg" xmlns:xlink="http://www.w3.org/1999/xlink" x="0px" y="0px"
	 viewBox="0 0 127.6 150" style="enable-background:new 0 0 127.6 150;" xml:space="preserve" width="25" height="30">
<style type="text/css">
	.st0{fill:#1B1F2B;}
	.st1{fill:#1B1F2B;stroke:#1B1F2B;stroke-miterlimit:10;}
</style>
<g>
	<g>
		<path class="st0" d="M63.8,147.7c-1.4,0-2.8-0.5-3.9-1.4C54,141.3,2.5,96.4,2.5,64C2.5,30.2,30,2.7,63.8,2.7
			c33.8,0,61.3,27.5,61.3,61.3c0,32.4-51.5,77.3-57.4,82.3C66.5,147.2,65.2,147.7,63.8,147.7L63.8,147.7z M63.8,14.7
			c-27.2,0-49.3,22.1-49.3,49.3c0,21,32.6,54.7,49.3,69.8c16.7-15,49.3-48.8,49.3-69.8C113.1,36.8,91,14.7,63.8,14.7L63.8,14.7z"/>
	</g>
	<g>
		<path class="st0" d="M63.8,93.9c-16.5,0-29.9-13.4-29.9-29.9c0-16.5,13.4-29.9,29.9-29.9c16.5,0,29.9,13.4,29.9,29.9
			C93.7,80.5,80.3,93.9,63.8,93.9L63.8,93.9z M63.8,46.1c-9.9,0-17.9,8-17.9,17.9s8,17.9,17.9,17.9s17.9-8,17.9-17.9
			S73.7,46.1,63.8,46.1L63.8,46.1z"/>
	</g>
</g>
<path class="st1" d="M61.6,136.4c-13.1-10-22.3-19.9-28.5-27.2C23.4,97.6,19,89.3,17.6,86.6c-4.9-9.6-9.3-18.6-8-30
	c0.8-7.2,3.5-12.4,5.3-15.8c1.1-2.1,5.9-11,17-19.5C41.8,13.7,53,5.2,61.3,9.5c9,4.7,11.2,22.5,5.3,27.9c-3.5,3.2-7.9,0.4-14.9,5
	C47.4,45.2,45,49,44,50.7c-1.2,2-3.8,6.4-4,12.7c-0.1,2-0.2,7.4,3.1,13c3.3,5.5,8.2,8.1,11.8,9.9c5,2.6,7.1,2.3,9,3.4
	C68.2,92.3,70.8,102.5,61.6,136.4z"/>
<path class="st1" d="M65,139.9c-10.5-2.7-11.4-47.5,1.2-52.6c3.9-1.6,8.3,0.8,13.3-2.8c2.7-1.9,4-4.6,6.5-9.9
	c3.1-6.5,4.7-9.8,3.7-13.6c-0.5-2-2.4-4-6.2-8c-3.7-3.9-6.3-6.6-10.5-8.4c-3.2-1.3-4-0.7-5.6-1.5c-7.3-4.1-7.3-28.6,2.5-33.7
	C80,4,97.3,20.6,104.3,29.6c10.9,13.9,12.2,28.3,12.4,31c0.6,7.8-0.6,13.9-1.2,16.4c-3,12.7-9.6,18.8-27.9,39.6
	C69.4,137.5,68,140.6,65,139.9z"/>
</svg>
