<?xml version="1.0" encoding="UTF-8"?>
<svg width="75px" height="75px" viewBox="0 0 75 75" version="1.1" xmlns="http://www.w3.org/2000/svg" xmlns:xlink="http://www.w3.org/1999/xlink">
    <!-- Generator: Sketch 54.1 (76490) - https://sketchapp.com -->
    <title>planning</title>
    <desc>Created with Sketch.</desc>
    <g id="mockups" stroke="none" stroke-width="1" fill="none" fill-rule="evenodd">
        <g id="home-panel-2" transform="translate(-738.000000, -383.000000)">
            <g id="services" transform="translate(737.000000, 231.000000)">
                <g id="planning" transform="translate(1.000000, 152.000000)">
                    <circle id="Oval" fill="#EEEEEE" cx="37.5" cy="37.5" r="37.5"></circle>
                    <g transform="translate(22.000000, 19.000000)">
                        <g id="noun_Cross_1776298" transform="translate(1.000000, 10.000000)" fill="#4A4A4A" fill-rule="nonzero">
                            <g id="Group">
                                <path d="M8.63657955,0.272280508 C8.34367905,-0.0255889831 7.86881055,-0.0255737288 7.57591905,0.272280508 L4.49999505,3.40034492 L1.42407855,0.272295763 C1.13118855,-0.0255584746 0.65632155,-0.0255737288 0.36341955,0.272295763 C0.07051905,0.570165254 0.07052805,1.0530839 0.36341955,1.35093814 L3.43933455,4.47897966 L0.36343005,7.60701356 C0.07054005,7.9048678 0.07052955,8.38778644 0.36343005,8.68565593 C0.65633205,8.98352542 1.13120055,8.98351017 1.42409055,8.68565593 L4.49999505,5.55760678 L7.57591005,8.68567119 C7.86879855,8.98352542 8.34366855,8.98352542 8.63656905,8.68567119 C8.92947015,8.38780169 8.92946115,7.90488305 8.63657055,7.60702881 L5.56065555,4.47897966 L8.63657955,1.35092288 C8.92947165,1.05306864 8.92948215,0.57015 8.63657955,0.272280508 L8.63657955,0.272280508 Z" id="Path"></path>
                            </g>
                        </g>
                        <g id="noun_Cross_1776298" transform="translate(26.000000, 29.000000)" fill="#4A4A4A" fill-rule="nonzero">
                            <g id="Group">
                                <path d="M8.63657955,0.272280508 C8.34367905,-0.0255889831 7.86881055,-0.0255737288 7.57591905,0.272280508 L4.49999505,3.40034492 L1.42407855,0.272295763 C1.13118855,-0.0255584746 0.65632155,-0.0255737288 0.36341955,0.272295763 C0.07051905,0.570165254 0.07052805,1.0530839 0.36341955,1.35093814 L3.43933455,4.47897966 L0.36343005,7.60701356 C0.07054005,7.9048678 0.07052955,8.38778644 0.36343005,8.68565593 C0.65633205,8.98352542 1.13120055,8.98351017 1.42409055,8.68565593 L4.49999505,5.55760678 L7.57591005,8.68567119 C7.86879855,8.98352542 8.34366855,8.98352542 8.63656905,8.68567119 C8.92947015,8.38780169 8.92946115,7.90488305 8.63657055,7.60702881 L5.56065555,4.47897966 L8.63657955,1.35092288 C8.92947165,1.05306864 8.92948215,0.57015 8.63657955,0.272280508 L8.63657955,0.272280508 Z" id="Path"></path>
                            </g>
                        </g>
                        <path d="M0,36.2030689 C1.65439912,35.874529 3.59273248,35.2894904 5.81500008,34.4479531 C12.2298151,32.0187649 14.799256,29.696522 17.5340212,26.8212667 C20.2041729,24.0139441 22.2692543,20.266137 23.3936461,13.8569459 C24.044749,10.1455681 24.5802003,6.07968317 25,1.65929121" id="Line-4" stroke="#4A4A4A" stroke-width="1.5" stroke-linecap="round"></path>
                        <path d="M25.3570384,0.819338872 L30.329915,7.63396294" id="Line-5" stroke="#4A4A4A" stroke-width="1.5" stroke-linecap="round" transform="translate(27.857038, 4.319339) rotate(-3.000000) translate(-27.857038, -4.319339) "></path>
                        <path d="M18.675399,0.596622305 L24.3852144,7.01488954" id="Line-5" stroke="#4A4A4A" stroke-width="1.5" stroke-linecap="round" transform="translate(21.675399, 4.096622) scale(-1, 1) rotate(-10.000000) translate(-21.675399, -4.096622) "></path>
                    </g>
                </g>
            </g>
        </g>
    </g>
</svg>