<?xml version="1.0" encoding="UTF-8"?>
<svg width="174px" height="174px" viewBox="0 0 174 174" version="1.1" xmlns="http://www.w3.org/2000/svg" xmlns:xlink="http://www.w3.org/1999/xlink">
    <!-- Generator: Sketch 51.2 (57519) - http://www.bohemiancoding.com/sketch -->
    <title>email</title>
    <desc>Created with Sketch.</desc>
    <defs></defs>
    <g id="website" stroke="none" stroke-width="1" fill="none" fill-rule="evenodd">
        <g id="home" transform="translate(-1042.000000, -313.000000)">
            <g id="email" transform="translate(1042.000000, 313.000000)">
                <circle id="Oval-2" fill="#FFFF00" fill-rule="nonzero" cx="87" cy="87" r="87"></circle>
                <circle id="Oval-2" fill-rule="nonzero" transform="translate(87.036539, 83.747071) rotate(99.000000) translate(-87.036539, -83.747071) " cx="87.0365387" cy="83.747071" r="71.3398527"></circle>
                <g id="Group-2" transform="translate(13.000000, 2.000000)">
                    <circle id="Oval-2" fill-rule="nonzero" transform="translate(74.036539, 76.747071) rotate(89.000000) translate(-74.036539, -76.747071) " cx="74.0365387" cy="76.747071" r="71.3398527"></circle>
                    <text id="email-me" font-family="GTHaptikTrial-Regular, GT Haptik Trial" font-size="24" font-weight="normal" letter-spacing="3.68000007" fill="#000000">
                        <tspan x="18" y="24">email m</tspan>
                        <tspan x="131.792" y="24">e</tspan>
                    </text>
                </g>
                <g id="Group-2" transform="translate(6.000000, 30.000000)">
                    <circle id="Oval-2" fill-rule="nonzero" transform="translate(81.621552, 81.621552) scale(1, -1) rotate(95.000000) translate(-81.621552, -81.621552) " cx="81.6215524" cy="81.6215524" r="71.3398527"></circle>
                    <text id="email-me" font-family="GTHaptikTrial-Regular, GT Haptik Trial" font-size="24" font-weight="normal" letter-spacing="1.08000004" fill="#000000">
                        <tspan x="30" y="40">email m</tspan>
                        <tspan x="125.592" y="40">e</tspan>
                    </text>
                </g>
                <g id="noun_Email_861888" transform="translate(61.000000, 71.000000)" fill="#000000" fill-rule="nonzero">
                    <g id="Group">
                        <path d="M3.91666667,0.234351765 C1.76941683,0.234351765 0,1.98826941 0,4.11670471 L0,28.70494 C0,30.8333753 1.76941683,32.5872929 3.91666667,32.5872929 L43.0833333,32.5872929 C45.2305832,32.5872929 47,30.8333753 47,28.70494 L47,4.11670471 C47,1.98826941 45.2305832,0.234351765 43.0833333,0.234351765 L3.91666667,0.234351765 Z M3.91666667,2.82258706 L43.0833333,2.82258706 C43.822063,2.82258706 44.378325,3.36775547 44.3888889,4.09648412 L23.5,18.6957488 L2.61111111,4.09648412 C2.62167501,3.36775547 3.17793699,2.82258706 3.91666667,2.82258706 Z M2.61111111,7.25089588 L22.7452257,21.3446459 C23.197422,21.6621865 23.802578,21.6621865 24.2547743,21.3446459 L44.3888889,7.25089588 L44.3888889,28.70494 C44.3888889,29.4442694 43.8291927,29.9990576 43.0833333,29.9990576 L3.91666667,29.9990576 C3.17080735,29.9990576 2.61111111,29.4442694 2.61111111,28.70494 L2.61111111,7.25089588 Z" id="Shape"></path>
                    </g>
                </g>
            </g>
        </g>
    </g>
</svg>