<?xml version="1.0" encoding="UTF-8"?>
<svg width="32px" height="32px" viewBox="0 0 32 32" version="1.1" xmlns="http://www.w3.org/2000/svg" xmlns:xlink="http://www.w3.org/1999/xlink">
    <!-- Generator: Sketch 51.2 (57519) - http://www.bohemiancoding.com/sketch -->
    <title>noun_return_1647487</title>
    <desc>Created with Sketch.</desc>
    <defs></defs>
    <g id="website" stroke="none" stroke-width="1" fill="none" fill-rule="evenodd">
        <g id="porfolio-individual-full" transform="translate(-34.000000, -51.000000)" fill-rule="nonzero">
            <g id="noun_return_1647487" transform="translate(35.000000, 52.000000)">
                <circle id="Oval-5" stroke="#FFFFFF" cx="15" cy="15" r="15"></circle>
                <path d="M14.2661912,12.6564193 L14.2661912,8.98369975 C14.266194,8.9351393 14.2377468,8.89135946 14.1941161,8.87277725 C14.1504855,8.85419505 14.100265,8.8644705 14.0668755,8.89881159 L8.21602593,14.9151114 C8.1941237,14.9376211 8.18181818,14.968158 8.18181818,15 C8.18181818,15.031842 8.1941237,15.0623789 8.21602593,15.0848886 L14.0668755,21.1011889 C14.0887674,21.1237086 14.1184638,21.1363616 14.1494296,21.1363636 C14.164765,21.1363327 14.1799473,21.1332262 14.194126,21.1272182 C14.2377715,21.1086588 14.2662243,21.0648661 14.2661912,21.0163003 L14.2661912,17.3454566 C19.1348302,17.3876665 21.5910422,20.0698633 21.6154454,20.0970649 C21.6479742,20.1335454 21.6989461,20.1457503 21.7438013,20.127799 C21.7886566,20.1098476 21.8181941,20.0654223 21.8181818,20.0159285 C21.8181799,17.3395941 18.1045003,12.7481084 14.2661912,12.6564193 Z" id="Shape" fill="#FFFFFF"></path>
            </g>
        </g>
    </g>
</svg>